<?xml version="1.0" encoding="utf-8"?>
<!-- Generator: Adobe Illustrator 26.3.1, SVG Export Plug-In . SVG Version: 6.00 Build 0)  -->
<svg version="1.1" id="레이어_1" xmlns="http://www.w3.org/2000/svg" xmlns:xlink="http://www.w3.org/1999/xlink" x="0px"
	 y="0px" viewBox="0 0 100 100" style="enable-background:new 0 0 100 100;" xml:space="preserve">
<style type="text/css">
	.st0{fill:#FFFFFF;}
</style>
<path class="st0" d="M93.41,45.6L93.41,45.6c-2.98,0.3-5.28,2.76-5.38,5.75c-0.33,9.57-4.24,18.66-11.12,25.54
	c-14.82,14.82-38.94,14.83-53.77,0.02C8.44,62.24,8.28,38.31,22.78,23.45c13.47-13.8,34.87-15.13,49.87-4l-8.14,8.14
	c-0.34,0.34-0.14,0.93,0.34,0.98l28.66,3.32c0.37,0.04,0.68-0.27,0.64-0.64L90.84,2.6c-0.06-0.48-0.64-0.68-0.98-0.34l-8.66,8.65
	c-3.75-3-7.89-5.43-12.37-7.25C62.83,1.23,56.5,0,50.01,0c-6.49,0-12.82,1.23-18.82,3.66c-6.21,2.52-11.77,6.21-16.55,10.98
	C9.88,19.42,6.18,24.98,3.66,31.19C1.23,37.18,0,43.51,0,50s1.23,12.82,3.66,18.81c2.52,6.21,6.21,11.77,10.99,16.54
	c4.77,4.77,10.34,8.47,16.55,10.98c5.99,2.43,12.32,3.66,18.82,3.66c6.49,0,12.82-1.23,18.82-3.66c6.21-2.52,11.77-6.21,16.55-10.98
	c9.05-9.05,14.2-21.02,14.62-33.61C100.12,48.12,97.01,45.23,93.41,45.6z"/>
</svg>
